# xmcd
#
# Track frame offsets:
#	183
#	11555
#	24743
#	38325
#	49660
#	59045
#	70340
#	81548
#	93363
#	104593
#	116523
#	126150
#	136935
#	147425
#	157315
#	169423
#
# Disc length: 2395
#
# Revision: 3
# Processed by: cddbd v1.5.1PL0 Copyright (c) Steve Scherf et al.
# Submitted via: audiograbber 1.80.04
# Normalized: r2:DSETVAR1
#
DISCID=eb095910
DTITLE=Various Artist - The World Of Country And Weastern Songs Vol. 2
DYEAR=1900
DGENRE=
TTITLE0=Bobby Bare - How I Got To Memphis
TTITLE1=Dave Dudley - I've Been Known Not To Go Home
TTITLE2=Freddy Quinn - Oh , Lonesome Me
TTITLE3=Buddy Meredith - A New Girl In Town
TTITLE4=Bobby Bare - That's All Right, Mama
TTITLE5=Barbara Perry - I'll Hold You Closer Than Love
TTITLE6=Ferlin Husky - The Bridge I Have Never Crossed
TTITLE7=Billy Grammar - Papa And Mama
TTITLE8=Freddy Quinn - Older Men Make Better Lovers
TTITLE9=George Kent - Hittin' The Bottle
TTITLE10=Dave Dudley - Rolling On Your Track
TTITLE11=Freddy Quinn - Tom Dooley
TTITLE12=Bobby Bare - The World Is Weighing Heavy On My Mind
TTITLE13=Ronnie Rogers - The Fool On The Stool
TTITLE14=Ferlin Huskey - Out Of The Clear Blue Sky
TTITLE15=Dave Dudley - Been Around The Horn
EXTD=
EXTT0=
EXTT1=
EXTT2=
EXTT3=
EXTT4=
EXTT5=
EXTT6=
EXTT7=
EXTT8=
EXTT9=
EXTT10=
EXTT11=
EXTT12=
EXTT13=
EXTT14=
EXTT15=
PLAYORDER=
